<svg version="1.1" xmlns="http://www.w3.org/2000/svg" xmlns:xlink="http://www.w3.org/1999/xlink" width="52.772" height="52.772"><defs><linearGradient x1="213.614" y1="180.00051" x2="266.386" y2="180.00051" gradientUnits="userSpaceOnUse" id="color-1"><stop offset="0" stop-color="#8dc63f"/><stop offset="1" stop-color="#006838"/></linearGradient><radialGradient cx="240" cy="180.00051" r="21.58146" gradientUnits="userSpaceOnUse" id="color-2"><stop offset="0" stop-color="#d7df23"/><stop offset="1" stop-color="#009444"/></radialGradient></defs><g transform="translate(-213.614,-153.614)"><g data-paper-data="{&quot;isPaintingLayer&quot;:true}" fill="none" fill-rule="nonzero" stroke="none" stroke-width="1" stroke-linecap="butt" stroke-linejoin="miter" stroke-miterlimit="10" stroke-dasharray="" stroke-dashoffset="0" font-family="none" font-weight="none" font-size="none" text-anchor="none" style="mix-blend-mode: normal"><path d="M266.386,180c0,14.54854 -11.83619,26.386 -26.386,26.386c-14.54918,0 -26.386,-11.83746 -26.386,-26.386c0,-14.54918 11.83619,-26.386 26.386,-26.386c14.54981,0 26.386,11.83746 26.386,26.386z" data-paper-data="{&quot;origPos&quot;:null}" fill="url(#color-1)"/><path d="M218.41816,180.00064c0,-11.91932 9.66252,-21.58184 21.58184,-21.58184c11.91932,0 21.58184,9.66252 21.58184,21.58184c0,11.91932 -9.66252,21.58184 -21.58184,21.58184c-11.91932,0 -21.58184,-9.66252 -21.58184,-21.58184z" data-paper-data="{&quot;origPos&quot;:null}" fill="url(#color-2)"/><text transform="translate(255.23782,191.31508) rotate(-180) scale(0.81697,-0.81697)" font-size="40" xml:space="preserve" data-paper-data="{&quot;origPos&quot;:null,&quot;index&quot;:null}" fill="#ffffff" fill-rule="nonzero" stroke="none" stroke-width="1" stroke-linecap="butt" stroke-linejoin="miter" stroke-miterlimit="10" stroke-dasharray="" stroke-dashoffset="0" font-family="Sans Serif" font-weight="normal" text-anchor="start" style="mix-blend-mode: normal"><tspan x="0" dy="0">➔</tspan></text></g></g></svg>