<svg version="1.1" xmlns="http://www.w3.org/2000/svg" xmlns:xlink="http://www.w3.org/1999/xlink" width="905.25434" height="224.93001" viewBox="0,0,905.25434,224.93001"><g transform="translate(574.67855,-84.03806)"><g data-paper-data="{&quot;isPaintingLayer&quot;:true}" fill-rule="nonzero" stroke-linejoin="miter" stroke-miterlimit="10" stroke-dasharray="" stroke-dashoffset="0" style="mix-blend-mode: normal"><path d="M-491.30028,280.67922c0,15.34734 -12.44149,27.78885 -27.78883,27.78885c-15.34734,0 -27.78885,-12.44149 -27.78885,-27.78885c0,-15.34734 12.44151,-27.78885 27.78885,-27.78885c15.34734,0 27.78885,12.44151 27.78885,27.78885z" fill="#000000" stroke="#000000" stroke-width="1" stroke-linecap="butt"/><path d="M-414.88092,280.67922c0,15.34734 -12.44149,27.78885 -27.78883,27.78885c-15.34737,0 -27.78885,-12.44149 -27.78885,-27.78885c0,-15.34734 12.44149,-27.78885 27.78885,-27.78885c15.34737,0 27.78883,12.44151 27.78883,27.78885z" fill="#000000" stroke="#000000" stroke-width="1" stroke-linecap="butt"/><path d="M209.55034,279.62691c0,15.34734 -12.44149,27.78885 -27.78885,27.78885c-15.34737,0 -27.78885,-12.44149 -27.78885,-27.78885c0,-15.34734 12.44149,-27.78885 27.78885,-27.78885c15.34737,0 27.78885,12.44151 27.78885,27.78885z" fill="#000000" stroke="#000000" stroke-width="1" stroke-linecap="butt"/><path d="M285.96972,279.62691c0,15.34734 -12.44149,27.78885 -27.78885,27.78885c-15.34737,0 -27.78885,-12.44149 -27.78885,-27.78885c0,-15.34734 12.44149,-27.78885 27.78885,-27.78885c15.34737,0 27.78885,12.44151 27.78885,27.78885z" fill="#000000" stroke="#000000" stroke-width="1" stroke-linecap="butt"/><path d="M308.58338,170.19589c7.75366,20.17814 9.13061,44.05267 12.03318,60.76825c0.15709,0.90485 9.95923,10.99924 9.95923,10.99924l-0.66387,31.05988c0,0 -31.54543,7.61429 -32.90033,7.74762c-4.06468,0.39991 -26.17681,-48.65445 -40.23718,-85.24518c-20.42876,-53.16402 -22.23319,-101.93222 -4.03029,-108.92685c18.2029,-6.99464 35.41049,30.43306 55.83925,83.59706z" data-paper-data="{&quot;origRot&quot;:0,&quot;index&quot;:null}" fill="#cccccc" stroke="none" stroke-width="0" stroke-linecap="butt"/><path d="M-574.67855,280.11226v-195.07421h834.48588v195.07421z" data-paper-data="{&quot;index&quot;:null}" fill="#cccccc" stroke="none" stroke-width="0" stroke-linecap="butt"/><path d="M-189.67855,110.11228v-26.07421h448.48588v26.07421z" data-paper-data="{&quot;index&quot;:null}" fill="#a91313" stroke="none" stroke-width="0" stroke-linecap="butt"/><path d="M76.69215,280.69719v-83.12823l197.3335,0.52257c0,0 29.59877,75.86723 27.79582,81.56956c-0.60098,1.90076 -225.1293,1.03608 -225.1293,1.03608z" data-paper-data="{&quot;index&quot;:null}" fill="#cccccc" stroke="none" stroke-width="0" stroke-linecap="butt"/><path d="M35.5,209.71667c-7.18499,0 -13.25,-7.33295 -13.25,-13.85833c0,-11.59977 0,-49.84256 0,-69c0,-6.7585 5.05452,-11.14167 11.25,-11.14167c29.42403,0 113.75,0 113.75,0v94c0,0 -80.43137,0 -111.75,0z" data-paper-data="{&quot;index&quot;:null}" fill="#3c3c3c" stroke="none" stroke-width="0" stroke-linecap="butt"/><path d="M-117.75,209.71667v-94c0,0 84.32597,0 113.75,0c6.19548,0 11.25,4.38316 11.25,11.14167c0,19.15744 0,57.40023 0,69c0,6.52537 -6.06502,13.85833 -13.25,13.85833c-31.31862,0 -111.75,0 -111.75,0z" data-paper-data="{&quot;index&quot;:null}" fill="#666666" stroke="none" stroke-width="0" stroke-linecap="butt"/><path d="M145.25,209.35834v-93l125,-0.64167c0,0 24.40473,47.50131 30.67912,64.84816c2.20188,6.08755 5.01848,14.82576 3.32088,19.15184c-3.77782,9.62719 -7.29771,9.98355 -14.74735,9.96677c-23.29913,-0.05251 -144.25265,-0.3251 -144.25265,-0.3251z" data-paper-data="{&quot;index&quot;:null}" fill="#666666" stroke="none" stroke-width="0" stroke-linecap="butt"/><path d="M208.78927,255.98186v-145.43839h62.13537v145.43839z" data-paper-data="{&quot;index&quot;:null}" fill="none" stroke="#808080" stroke-width="1.5" stroke-linecap="butt"/><path d="M218.70949,193.58736v-67.85259h39.45101v67.85259z" data-paper-data="{&quot;index&quot;:null}" fill="#000000" stroke="none" stroke-width="0" stroke-linecap="butt"/><path d="M267.69962,256.88034h-840.76963" fill="none" stroke="#808080" stroke-width="2.5" stroke-linecap="round"/><path d="M270.12721,281.15666v-188.18765" fill="none" stroke="#808080" stroke-width="2.5" stroke-linecap="round"/><path d="M22.40049,255.55402v-145.43839h62.13535v145.43839z" data-paper-data="{&quot;index&quot;:null}" fill="none" stroke="#808080" stroke-width="1.5" stroke-linecap="butt"/><path d="M84.5358,255.55402v-145.43839h62.13535v145.43839z" data-paper-data="{&quot;index&quot;:null}" fill="none" stroke="#808080" stroke-width="1.5" stroke-linecap="butt"/><path d="M96.19242,191.76662v-67.85259h39.45101v67.85259z" data-paper-data="{&quot;index&quot;:null}" fill="#000000" stroke="none" stroke-width="0" stroke-linecap="butt"/><path d="M35.04331,191.76662v-67.85259h39.45101v67.85259z" data-paper-data="{&quot;index&quot;:null}" fill="#000000" stroke="none" stroke-width="0" stroke-linecap="butt"/><path d="M-107.84752,188.86348v-56.92826h100.51295v56.92826z" data-paper-data="{&quot;index&quot;:null}" fill="#000000" stroke="none" stroke-width="0" stroke-linecap="butt"/><path d="M-245.42079,254.59735v-145.43839h62.13535v145.43839z" data-paper-data="{&quot;index&quot;:null}" fill="none" stroke="#0600b2" stroke-width="1.5" stroke-linecap="butt"/><path d="M-183.28546,254.59735v-145.43839h62.13535v145.43839z" data-paper-data="{&quot;index&quot;:null}" fill="none" stroke="#0600b2" stroke-width="1.5" stroke-linecap="butt"/><path d="M-171.62886,190.80995v-67.85259h39.45101v67.85259z" data-paper-data="{&quot;index&quot;:null}" fill="#000000" stroke="none" stroke-width="0" stroke-linecap="butt"/><path d="M-232.77795,190.80995v-67.85259h39.45101v67.85259z" data-paper-data="{&quot;index&quot;:null}" fill="#000000" stroke="none" stroke-width="0" stroke-linecap="butt"/><path d="M-332.6688,175.90679v-56.92826h66.51295v56.92826z" data-paper-data="{&quot;index&quot;:null}" fill="#000000" stroke="none" stroke-width="0" stroke-linecap="butt"/><path d="M-468.32869,255.55402v-145.43839h62.13535v145.43839z" data-paper-data="{&quot;index&quot;:null}" fill="none" stroke="#0600b2" stroke-width="1.5" stroke-linecap="butt"/><path d="M-406.19338,255.55402v-145.43839h62.13537v145.43839z" data-paper-data="{&quot;index&quot;:null}" fill="none" stroke="#0600b2" stroke-width="1.5" stroke-linecap="butt"/><path d="M-394.53678,191.76662v-67.85259h39.45101v67.85259z" data-paper-data="{&quot;index&quot;:null}" fill="#000000" stroke="none" stroke-width="0" stroke-linecap="butt"/><path d="M-455.68585,191.76662v-67.85259h39.45101v67.85259z" data-paper-data="{&quot;index&quot;:null}" fill="#000000" stroke="none" stroke-width="0" stroke-linecap="butt"/><path d="M-555.5767,176.86348v-56.92826h66.51295v56.92826z" data-paper-data="{&quot;index&quot;:null}" fill="#000000" stroke="none" stroke-width="0" stroke-linecap="butt"/><path d="M-189.67855,289.61978v-27.58172h518.48588v13.07421l-42.55733,13.5015z" data-paper-data="{&quot;index&quot;:null}" fill="#3c3c3c" stroke="none" stroke-width="0" stroke-linecap="butt"/><path d="M222,272.85834v-8.5h36.5v8.5z" fill="#272727" stroke="none" stroke-width="0" stroke-linecap="butt"/><path d="M222,284.19167v-8.5h36.5v8.5z" fill="#272727" stroke="none" stroke-width="0" stroke-linecap="butt"/></g></g></svg>